<?xml version="1.0" encoding="UTF-8"?>
<svg id="Ebene_1" data-name="Ebene 1" xmlns="http://www.w3.org/2000/svg" viewBox="0 0 29.2 29.2">
  <path d="M14.6,0C6.55,0,0,6.55,0,14.6s6.55,14.6,14.6,14.6,14.6-6.55,14.6-14.6S22.65,0,14.6,0ZM14.6,27.2c-6.95,0-12.6-5.65-12.6-12.6S7.65,2,14.6,2s12.6,5.65,12.6,12.6-5.65,12.6-12.6,12.6Z"/>
  <path d="M8.8,14.41c.59,0,1.06-.48,1.06-1.06v-2.59l.52-.55,2.71,3.75c.21.29.52.45.86.45.57,0,1.05-.48,1.05-1.05,0-.22-.08-.45-.2-.61l-2.97-4.05,2.5-2.71c.18-.2.27-.43.27-.7,0-.57-.46-1.03-1.03-1.03-.29,0-.57.12-.77.35l-2.93,3.27v-1.55c0-.59-.48-1.06-1.06-1.06s-1.06.48-1.06,1.06v7.03c0,.59.48,1.06,1.06,1.06Z"/>
  <path d="M17.49,14.31c.33,0,.67,0,.96-.02,1.67-.06,2.93-.54,3.74-1.42.73-.8,1.05-1.89.98-3.26-.16-2.74-1.68-4.32-4.79-4.99h0c-.47-.1-1.3-.19-1.81-.18-.84.02-1.03.57-1.04,1.02-.06,2.47-.03,5.25,0,7.75,0,.65.35,1,1.04,1.07.25.03.58.04.92.04ZM17.59,6.5c.07,0,.15.02.23.02.17.02.34.03.47.06,1.77.4,2.64,1.37,2.74,3.07.05.83-.13,1.48-.53,1.93-.43.47-1.12.73-2.05.77-.16,0-.39,0-.61,0-.07,0-.13,0-.2,0,0-.76-.02-1.51-.03-2.27-.02-1.17-.04-2.38-.03-3.58Z"/>
  <path d="M12.13,18.82c-1.1-.36-1.78-.61-1.78-1.17s.5-.86,1.35-.86c.67,0,1.36.26,1.79.67.27.26.52.38.77.38.55,0,1.01-.45,1.01-.99,0-.21-.06-.41-.19-.59-.62-.88-1.91-1.42-3.38-1.42-2.56,0-3.47,1.45-3.47,2.81,0,2.08,1.78,2.67,3.2,3.14,1.18.39,1.91.67,1.91,1.34,0,.63-.23.96-1.48.96-1.02,0-1.94-.8-2.28-1.15-.15-.15-.38-.38-.79-.38-.55,0-.99.45-.99,1.01,0,.18.05.37.15.52.59.96,2.17,1.98,3.92,1.98,2.98,0,3.61-1.6,3.61-2.94,0-2.21-1.85-2.82-3.34-3.31Z"/>
  <path d="M22.69,15.03h-5.37c-.59,0-1.06.48-1.06,1.06v7.91c0,.59.48,1.06,1.06,1.06s1.06-.48,1.06-1.06v-3h2.4c.53,0,.96-.43.96-.96s-.43-.96-.96-.96h-2.4v-2.09h4.31c.55,0,.98-.43.98-.98s-.43-.98-.98-.98Z"/>
</svg>