<?xml version="1.0" encoding="UTF-8"?><svg id="Ebene_2" xmlns="http://www.w3.org/2000/svg" xmlns:xlink="http://www.w3.org/1999/xlink" viewBox="0 0 191.11 56.84"><defs><style>.cls-1{fill:#e95709;}.cls-2{fill:url(#Unbenannter_Verlauf_3);}.cls-3{fill:url(#Unbenannter_Verlauf_3-10);}.cls-4{fill:url(#Unbenannter_Verlauf_3-4);}.cls-5{fill:url(#Unbenannter_Verlauf_3-3);}.cls-6{fill:url(#Unbenannter_Verlauf_3-2);}.cls-7{fill:url(#Unbenannter_Verlauf_3-9);}.cls-8{fill:url(#Unbenannter_Verlauf_3-8);}.cls-9{fill:url(#Unbenannter_Verlauf_3-7);}.cls-10{fill:url(#Unbenannter_Verlauf_3-6);}.cls-11{fill:url(#Unbenannter_Verlauf_3-5);}</style><linearGradient id="Unbenannter_Verlauf_3" x1="-.73" y1="21.26" x2="172.73" y2="-17.22" gradientUnits="userSpaceOnUse"><stop offset=".08" stop-color="#faab36"/><stop offset=".49" stop-color="#f78104"/><stop offset=".94" stop-color="#e95709"/></linearGradient><linearGradient id="Unbenannter_Verlauf_3-2" x1="3.56" y1="40.62" x2="177.03" y2="2.14" xlink:href="#Unbenannter_Verlauf_3"/><linearGradient id="Unbenannter_Verlauf_3-3" x1="1.23" y1="30.11" x2="174.7" y2="-8.37" xlink:href="#Unbenannter_Verlauf_3"/><linearGradient id="Unbenannter_Verlauf_3-4" x1="1.23" y1="30.11" x2="174.7" y2="-8.37" xlink:href="#Unbenannter_Verlauf_3"/><linearGradient id="Unbenannter_Verlauf_3-5" x1="9.44" y1="53.58" x2="182.9" y2="15.1" xlink:href="#Unbenannter_Verlauf_3"/><linearGradient id="Unbenannter_Verlauf_3-6" x1="9" y1="51.62" x2="182.47" y2="13.14" xlink:href="#Unbenannter_Verlauf_3"/><linearGradient id="Unbenannter_Verlauf_3-7" x1="10.72" y1="59.36" x2="184.19" y2="20.88" xlink:href="#Unbenannter_Verlauf_3"/><linearGradient id="Unbenannter_Verlauf_3-8" x1="6.65" y1="41.01" x2="180.12" y2="2.53" xlink:href="#Unbenannter_Verlauf_3"/><linearGradient id="Unbenannter_Verlauf_3-9" x1="11.52" y1="62.97" x2="184.99" y2="24.49" xlink:href="#Unbenannter_Verlauf_3"/><linearGradient id="Unbenannter_Verlauf_3-10" x1="-34.31" y1="51.77" x2="254.61" y2="-12.32" xlink:href="#Unbenannter_Verlauf_3"/></defs><g id="Ebene_1-2"><path class="cls-2" d="M10.97,25.01H3.42c-.57,0-1.04.46-1.04,1.04v11.09c0,.57-.46,1.04-1.04,1.04h-.31c-.57,0-1.04-.46-1.04-1.04V4.53c0-.57.46-1.04,1.04-1.04h11.75c1.2,0,2.42.13,3.56.49,1.69.53,3.15,1.42,4.4,2.66,1.02,1.02,1.8,2.19,2.34,3.51.54,1.32.81,2.69.81,4.13s-.27,2.8-.81,4.1c-.54,1.3-1.32,2.46-2.34,3.48-1.6,1.57-3.45,2.56-5.54,2.97-.49.1-3.68.18-4.24.18ZM2.38,21.58c0,.57.46,1.04,1.04,1.04h9.69c1.11,0,2.18-.21,3.2-.64,1.02-.43,1.92-1.04,2.72-1.84s1.41-1.7,1.84-2.72c.43-1.02.64-2.07.64-3.15s-.21-2.18-.64-3.2c-.43-1.02-1.04-1.92-1.84-2.72-.8-.79-1.7-1.41-2.72-1.84-1.02-.43-2.08-.64-3.2-.64H3.42c-.57,0-1.04.46-1.04,1.04v14.67Z"/><path class="cls-6" d="M105.92,3.49h-17.57c-.66,0-1.19.53-1.19,1.19s.53,1.19,1.19,1.19h7.59v31.1c0,.66.53,1.19,1.19,1.19s1.19-.53,1.19-1.19V5.88h7.59c.66,0,1.19-.53,1.19-1.19s-.53-1.19-1.19-1.19Z"/><circle class="cls-5" cx="43.04" cy="20.83" r="6.24"/><path class="cls-4" d="M43.04,5.81c8.28,0,15.02,6.74,15.02,15.02s-6.74,15.02-15.02,15.02-15.02-6.74-15.02-15.02,6.74-15.02,15.02-15.02M43.04,3.49c-9.58,0-17.34,7.76-17.34,17.34s7.76,17.34,17.34,17.34,17.34-7.76,17.34-17.34S52.62,3.49,43.04,3.49h0Z"/><path class="cls-11" d="M137.49,12.7c-6.6,0-13.65,4.39-13.65,16.72,0,6,3.19,9.17,9.22,9.17,10.06,0,13.65-8.64,13.65-16.72,0-6-3.19-9.17-9.22-9.17ZM133.32,36.39c-4.69,0-6.97-2.3-6.97-7.02,0-6.99,2.86-14.46,10.87-14.46,4.69,0,6.97,2.3,6.97,7.02,0,6.99-2.86,14.46-10.87,14.46Z"/><path class="cls-10" d="M156.59,0c-.65,0-1.15.43-1.3,1.13l-5.47,31.08c-.11.64-.16,1.25-.16,1.79,0,2.79,1.56,4.33,4.38,4.33.69,0,1.26-.54,1.26-1.21,0-.55-.45-1-1-1-1.6,0-2.23-.64-2.23-2.28,0-.44.05-.94.15-1.49l5.46-31.07c.07-.32,0-.63-.2-.88-.21-.26-.54-.41-.9-.41Z"/><path class="cls-9" d="M164.76,13.01c-.7,0-1.28.49-1.36,1.13l-4.06,22.89c-.07.34,0,.66.19.9.21.26.53.4.91.4.66,0,1.23-.5,1.3-1.13l4.06-22.9v-.02c.05-.34-.05-.67-.26-.91-.2-.22-.48-.35-.78-.35Z"/><path class="cls-8" d="M166.53,4.06c-.97,0-1.57.74-1.57,1.94,0,.33.12,1.1,1.21,1.1.97,0,1.57-.74,1.57-1.94,0-.33-.12-1.1-1.21-1.1Z"/><path class="cls-7" d="M181.89,12.7c-6.6,0-13.65,4.39-13.65,16.72,0,6,3.19,9.17,9.22,9.17,10.06,0,13.65-8.64,13.65-16.72,0-6-3.19-9.17-9.22-9.17ZM177.73,36.39c-4.69,0-6.97-2.3-6.97-7.02,0-6.99,2.86-14.46,10.87-14.46,4.69,0,6.97,2.3,6.97,7.02,0,6.99-2.86,14.46-10.87,14.46Z"/><path class="cls-3" d="M126.66,1.41c-5.83,0-9.74,3.32-10.73,9.1l-.44,2.51c-.04.24-.25.42-.5.42h-2.18c-.63,0-1.21.58-1.21,1.21,0,.58.42,1,1,1h1.81c.31,0,.55.28.5.58-.35,2.1-1.57,9.37-2.34,13.55-.25,1.37-.57,2.72-1.05,4.03-.53,1.45-1.17,2.78-1.91,3.99-1.01,1.68-2.2,3.14-3.56,4.39-.02.02-.05.02-.07.04-1.34,1.21-2.77,2.16-4.29,2.85-.13.06-.26.13-.4.18-.21.09-.43.16-.64.24-.29.11-.58.22-.88.31-.07.02-.13.03-.2.05-.41.12-.83.23-1.25.31,0,0,0,0-.01,0-.47.09-.94.16-1.42.21-.16.02-.33.02-.5.03-.31.02-.63.05-.94.05-.32,0-.63-.03-.94-.05-.17-.01-.33,0-.5-.03-.48-.05-.95-.12-1.42-.21,0,0,0,0,0,0-.42-.08-.83-.19-1.25-.31-.07-.02-.13-.03-.2-.05-.29-.09-.59-.2-.88-.31-.21-.08-.43-.15-.64-.24-.14-.06-.27-.12-.4-.18-1.52-.7-2.95-1.64-4.29-2.85-.02-.02-.05-.03-.07-.04-1.36-1.25-2.55-2.72-3.56-4.39-1.11-1.81-1.99-3.9-2.62-6.25-.46-1.77-.75-3.53-.86-5.3-.04-.7.44-1.33,1.13-1.48,1.96-.44,3.7-1.41,5.21-2.9,1.02-1.02,1.8-2.18,2.34-3.48.54-1.3.81-2.67.81-4.1s-.27-2.81-.81-4.13c-.54-1.32-1.32-2.49-2.34-3.51-1.18-1.18-2.57-2.04-4.16-2.58-1.24-.42-2.56-.57-3.87-.57-2.62,0-8.41,0-11.18,0-.85,0-1.54.69-1.54,1.54v32.1c0,.57.46,1.04,1.04,1.04h.31c.57,0,1.04-.46,1.04-1.04v-10.58c0-.85.69-1.54,1.54-1.54h6.56c.8,0,1.49.61,1.54,1.41.12,1.87.44,3.79.95,5.75.67,2.48,1.62,4.77,2.86,6.87,1.15,1.88,2.51,3.52,4.04,4.93.01.01.02.03.03.04.04.03.08.06.11.1.02.02.04.04.06.06.07.07.15.12.23.19.28.24.55.47.84.69.13.1.27.2.41.3.31.23.62.44.94.65.07.05.14.1.22.14,1.35.85,2.77,1.5,4.25,1.96.04.01.08.02.12.04.51.15,1.03.29,1.56.4,1.08.22,2.21.33,3.39.33,0,0,.01,0,.02,0s.01,0,.02,0c1.18,0,2.31-.11,3.39-.33.53-.11,1.05-.25,1.56-.4.04-.01.08-.02.12-.04,1.49-.46,2.91-1.11,4.25-1.96.07-.05.14-.09.22-.14.32-.2.63-.42.93-.65.14-.1.27-.2.41-.3.28-.22.56-.45.83-.69.07-.06.15-.12.23-.19.02-.02.04-.04.06-.06.04-.03.08-.06.11-.1.01-.01.02-.03.03-.04,1.53-1.41,2.88-3.04,4.04-4.93.41-.7.8-1.42,1.14-2.16,1.03-2.18,1.68-4.52,2.1-6.9.8-4.54,2.13-12.09,2.45-13.92.04-.24.25-.41.5-.41h5.41c.63,0,1.21-.58,1.21-1.21,0-.58-.42-1-1-1h-5.03c-.31,0-.55-.28-.5-.59l.38-2.18c.58-3.21,2.45-7.04,8.07-7.04.69,0,1.26-.54,1.26-1.21,0-.58-.42-1-1-1ZM67.36,22.62c-.85,0-1.54-.69-1.54-1.54V7.42c0-.85.69-1.54,1.54-1.54h9.18c.54,0,1.09.03,1.62.14,1.68.37,3.12,1.15,4.3,2.34.79.8,1.41,1.7,1.84,2.72.43,1.02.64,2.08.64,3.2s-.21,2.13-.64,3.15c-.43,1.02-1.04,1.92-1.84,2.72-1.18,1.18-2.61,1.96-4.29,2.34-.53.12-1.08.15-1.62.15h-9.19Z"/><path class="cls-1" d="M130.58,50.91c0,2.26-1.09,3.32-2.96,3.32-1.67,0-2.86-.93-2.86-2.77v-6.52c0-.42.33-.75.75-.75s.75.33.75.75v3.18c.28-.28.86-.55,1.52-.55,1.74,0,2.81,1.08,2.81,3.34ZM126.25,51.47c0,.95.57,1.49,1.37,1.49.96,0,1.48-.69,1.48-2.05s-.54-2.06-1.48-2.06c-.83,0-1.37.71-1.37.71v1.91Z"/><path class="cls-1" d="M134.53,53.61l-2.13-4.91c-.03-.07-.06-.17-.06-.29,0-.42.33-.75.75-.75s.62.29.69.47l1.52,3.85,1.52-3.85c.07-.18.28-.47.69-.47s.75.33.75.75c0,.12-.03.22-.06.29l-2.57,5.81c-.61,1.36-1.48,2.33-2.86,2.33-.4,0-.72-.29-.72-.69s.32-.69.72-.69c.89,0,1.3-.71,1.76-1.84Z"/><path class="cls-1" d="M144.8,49.41c0-3.28,1.59-4.86,4.39-4.86s4.39,1.58,4.39,4.86-1.59,4.84-4.39,4.84-4.39-1.61-4.39-4.84ZM146.46,49.41c0,2.28.9,3.4,2.73,3.4s2.73-1.12,2.73-3.4-.9-3.42-2.73-3.42-2.73,1.12-2.73,3.42Z"/><path class="cls-1" d="M159.44,45.99c-1.15,0-1.58.54-1.58,1.09,0,1.81,5.05.97,5.05,4.43,0,1.69-1.19,2.74-3.47,2.74-1.65,0-2.96-.82-3.5-1.69-.07-.11-.11-.25-.11-.39,0-.42.33-.75.73-.75.3,0,.47.17.61.3.58.58,1.31,1.05,2.27,1.05,1.26,0,1.87-.42,1.87-1.27,0-2.02-5.05-1.09-5.05-4.43,0-1.37.98-2.53,3.18-2.53,1.38,0,2.59.51,3.14,1.3.08.12.14.28.14.44,0,.4-.33.73-.75.73-.19,0-.39-.11-.6-.3-.43-.42-1.15-.73-1.94-.73Z"/><path class="cls-1" d="M167.18,53.36c0,.44-.36.8-.8.8s-.8-.36-.8-.8v-7.93c0-.44.36-.8.8-.8s.8.36.8.8v7.93Z"/><path class="cls-1" d="M171.83,50.49v2.88c0,.44-.36.8-.8.8s-.8-.36-.8-.8v-7.82c0-.44.36-.8.8-.8h2.64c1.87,0,2.92,1.33,2.92,2.89,0,1.31-.8,2.59-2.13,2.75l2.05,2.49c.12.17.17.33.17.48,0,.44-.36.8-.8.8-.24,0-.48-.11-.62-.29l-2.52-3.39h-.9ZM171.83,46.18v2.89h1.87c.86,0,1.23-.71,1.23-1.44s-.37-1.45-1.27-1.45h-1.83Z"/><path class="cls-1" d="M180.97,53.36c0,.44-.36.8-.8.8s-.8-.36-.8-.8v-7.93c0-.44.36-.8.8-.8s.8.36.8.8v7.93Z"/><path class="cls-1" d="M187.2,45.99c-1.15,0-1.58.54-1.58,1.09,0,1.81,5.05.97,5.05,4.43,0,1.69-1.19,2.74-3.47,2.74-1.65,0-2.96-.82-3.5-1.69-.07-.11-.11-.25-.11-.39,0-.42.33-.75.73-.75.3,0,.47.17.61.3.58.58,1.31,1.05,2.27,1.05,1.26,0,1.87-.42,1.87-1.27,0-2.02-5.05-1.09-5.05-4.43,0-1.37.98-2.53,3.18-2.53,1.38,0,2.59.51,3.14,1.3.08.12.14.28.14.44,0,.4-.33.73-.75.73-.19,0-.39-.11-.6-.3-.43-.42-1.15-.73-1.94-.73Z"/></g></svg>